<?xml version="1.0" encoding="utf-8"?>
<svg xmlns="http://www.w3.org/2000/svg" width="100%" viewBox="0 0 160 81" style="margin-block-end:64px; margin-block-start:64px; margin-bottom:64px; margin-left:0px; margin-right:0px; margin-top:64px;"><g transform="translate(-16)">
        <svg x="80" y="0" width="32" height="64" viewBox="0 0 16 32">
            <rect width="100%" height="100%" rx="1.6" ry="1.6" fill-opacity="0" stroke="white" stroke-width="0.25" stroke-linecap="round" stroke-linejoin="round"></rect>
            <text x="50%" y="3" text-anchor="middle" dominant-baseline="middle" font-size="10%" font-family="monospace" font-weight="bold" fill="rgb(255, 255, 255)">buy_ticket</text>
            
            </svg></g><svg x="0" y="0" width="16" height="16" viewBox="0 0 16 16">
    
    
    
    <svg x="25%" y="15%" width="50%" height="60%" xmlns="http://www.w3.org/2000/svg" viewBox="0 0 32 32" fill="none">
            
            <path d="M16 2C12.134 2 9 5.13401 9 9V13C9 15.3787 10.1865 17.4804 12 18.7453V21H8.01722C5.78481 21 3.82288 22.4799 3.20959 24.6264L2.03848 28.7253C1.95228 29.027 2.0127 29.3517 2.20166 29.6022C2.39062 29.8527 2.68622 30 3.00001 30H29C29.3138 30 29.6094 29.8527 29.7984 29.6022C29.9873 29.3517 30.0477 29.027 29.9615 28.7253L28.7904 24.6264C28.1771 22.4799 26.2152 21 23.9828 21H20V18.7453C21.8135 17.4804 23 15.3787 23 13V9C23 5.13401 19.866 2 16 2Z" fill="white"></path>
            
        </svg>
        <text x="50%" y="85%" text-anchor="middle" font-size="14%" font-family="monospace" fill="white">Buyer</text>
    </svg><svg x="0" y="16" width="16" height="16" viewBox="0 0 16 16">
    <svg x="25%" y="15%" width="50%" height="60%" xmlns="http://www.w3.org/2000/svg" viewBox="0 0 32 32" fill="none">
            
            <path fill-rule="evenodd" clip-rule="evenodd" d="M5 5C5 3.34315 6.34315 2 8 2H24C25.6569 2 27 3.34315 27 5V27C27 28.6569 25.6569 30 24 30H8C6.34315 30 5 28.6569 5 27V5ZM10 6C9.44772 6 9 6.44772 9 7C9 7.55228 9.44772 8 10 8H12C12.5523 8 13 7.55228 13 7C13 6.44772 12.5523 6 12 6H10ZM19 20C18.4477 20 18 20.4477 18 21C18 21.5523 18.4477 22 19 22H22C22.5523 22 23 21.5523 23 21C23 20.4477 22.5523 20 22 20H19ZM21 23C20.4477 23 20 23.4477 20 24C20 24.5523 20.4477 25 21 25H22C22.5523 25 23 24.5523 23 24C23 23.4477 22.5523 23 22 23H21ZM15 6C14.4477 6 14 6.44772 14 7C14 7.55228 14.4477 8 15 8H22C22.5523 8 23 7.55228 23 7C23 6.44772 22.5523 6 22 6H15ZM10 9C9.44772 9 9 9.44772 9 10C9 10.5523 9.44772 11 10 11H22C22.5523 11 23 10.5523 23 10C23 9.44772 22.5523 9 22 9H10ZM10 12C9.44772 12 9 12.4477 9 13C9 13.5523 9.44772 14 10 14H22C22.5523 14 23 13.5523 23 13C23 12.4477 22.5523 12 22 12H10ZM13 15C10.7909 15 9 16.7909 9 19C9 21.2091 10.7909 23 13 23C15.2091 23 17 21.2091 17 19C17 16.7909 15.2091 15 13 15ZM13 24C11.8744 24 10.8357 23.6281 10 23.0004V26C10 26.3466 10.1795 26.6684 10.4743 26.8507C10.7691 27.0329 11.1372 27.0494 11.4472 26.8944L13 26.118L14.5528 26.8944C14.8628 27.0494 15.2309 27.0329 15.5257 26.8507C15.8205 26.6684 16 26.3466 16 26V23.0004C15.1643 23.6281 14.1256 24 13 24Z" fill="white"></path>
            
        </svg>
        <text x="50%" y="85%" text-anchor="middle" font-size="14%" font-family="monospace" fill="white">TicketCounter</text>
    </svg><svg x="144" y="0" width="16" height="16" viewBox="0 0 16 16">
    <svg x="25%" y="15%" width="50%" height="60%" xmlns="http://www.w3.org/2000/svg" viewBox="0 0 32 32" fill="none">
            
            <path d="M16 2C12.134 2 9 5.13401 9 9V13C9 15.3787 10.1865 17.4804 12 18.7453V21H8.01722C5.78481 21 3.82288 22.4799 3.20959 24.6264L2.03848 28.7253C1.95228 29.027 2.0127 29.3517 2.20166 29.6022C2.39062 29.8527 2.68622 30 3.00001 30H29C29.3138 30 29.6094 29.8527 29.7984 29.6022C29.9873 29.3517 30.0477 29.027 29.9615 28.7253L28.7904 24.6264C28.1771 22.4799 26.2152 21 23.9828 21H20V18.7453C21.8135 17.4804 23 15.3787 23 13V9C23 5.13401 19.866 2 16 2Z" fill="white"></path>
            
        </svg>
        <text x="50%" y="85%" text-anchor="middle" font-size="14%" font-family="monospace" fill="white">Buyer</text>
    </svg><svg x="144" y="16" width="16" height="16" viewBox="0 0 16 16">
    <svg x="25%" y="15%" width="50%" height="60%" xmlns="http://www.w3.org/2000/svg" viewBox="0 0 32 32" fill="none">
            
            <path fill-rule="evenodd" clip-rule="evenodd" d="M5 5C5 3.34315 6.34315 2 8 2H24C25.6569 2 27 3.34315 27 5V27C27 28.6569 25.6569 30 24 30H8C6.34315 30 5 28.6569 5 27V5ZM10 6C9.44772 6 9 6.44772 9 7C9 7.55228 9.44772 8 10 8H12C12.5523 8 13 7.55228 13 7C13 6.44772 12.5523 6 12 6H10ZM19 20C18.4477 20 18 20.4477 18 21C18 21.5523 18.4477 22 19 22H22C22.5523 22 23 21.5523 23 21C23 20.4477 22.5523 20 22 20H19ZM21 23C20.4477 23 20 23.4477 20 24C20 24.5523 20.4477 25 21 25H22C22.5523 25 23 24.5523 23 24C23 23.4477 22.5523 23 22 23H21ZM15 6C14.4477 6 14 6.44772 14 7C14 7.55228 14.4477 8 15 8H22C22.5523 8 23 7.55228 23 7C23 6.44772 22.5523 6 22 6H15ZM10 9C9.44772 9 9 9.44772 9 10C9 10.5523 9.44772 11 10 11H22C22.5523 11 23 10.5523 23 10C23 9.44772 22.5523 9 22 9H10ZM10 12C9.44772 12 9 12.4477 9 13C9 13.5523 9.44772 14 10 14H22C22.5523 14 23 13.5523 23 13C23 12.4477 22.5523 12 22 12H10ZM13 15C10.7909 15 9 16.7909 9 19C9 21.2091 10.7909 23 13 23C15.2091 23 17 21.2091 17 19C17 16.7909 15.2091 15 13 15ZM13 24C11.8744 24 10.8357 23.6281 10 23.0004V26C10 26.3466 10.1795 26.6684 10.4743 26.8507C10.7691 27.0329 11.1372 27.0494 11.4472 26.8944L13 26.118L14.5528 26.8944C14.8628 27.0494 15.2309 27.0329 15.5257 26.8507C15.8205 26.6684 16 26.3466 16 26V23.0004C15.1643 23.6281 14.1256 24 13 24Z" fill="white"></path>

        </svg>
        <text x="50%" y="85%" text-anchor="middle" font-size="14%" font-family="monospace" fill="white">TicketCounter</text>
    </svg><svg x="144" y="32" width="16" height="16" viewBox="0 0 16 16">
    <svg x="25%" y="15%" width="50%" height="60%" xmlns="http://www.w3.org/2000/svg" viewBox="0 0 32 32" fill="none">
            
            <path d="M16 2C12.134 2 9 5.13401 9 9V13C9 15.3787 10.1865 17.4804 12 18.7453V21H8.01722C5.78481 21 3.82288 22.4799 3.20959 24.6264L2.03848 28.7253C1.95228 29.027 2.0127 29.3517 2.20166 29.6022C2.39062 29.8527 2.68622 30 3.00001 30H29C29.3138 30 29.6094 29.8527 29.7984 29.6022C29.9873 29.3517 30.0477 29.027 29.9615 28.7253L28.7904 24.6264C28.1771 22.4799 26.2152 21 23.9828 21H20V18.7453C21.8135 17.4804 23 15.3787 23 13V9C23 5.13401 19.866 2 16 2Z" fill="white"></path>
            
        </svg>
        <text x="50%" y="85%" text-anchor="middle" font-size="14%" font-family="monospace" fill="white">Treasury</text>
    </svg><line x1="16" y1="8" x2="38" y2="11" stroke="rgb(255, 255, 255)" stroke-width="0.4" stroke-dasharray="1,1" stroke-opacity="0.5"></line><line x1="16" y1="24" x2="38" y2="27" stroke="rgb(255, 255, 255)" stroke-width="0.4" stroke-dasharray="1,1" stroke-opacity="0.5"></line><line x1="122" y1="11" x2="144" y2="8" stroke="rgb(255, 255, 255)" stroke-width="0.4" stroke-dasharray="1,1" stroke-opacity="0.5"></line><line x1="122" y1="27" x2="144" y2="24" stroke="rgb(255, 255, 255)" stroke-width="0.4" stroke-dasharray="1,1" stroke-opacity="0.5"></line><line x1="122" y1="43" x2="144" y2="40" stroke="rgb(255, 255, 255)" stroke-width="0.4" stroke-dasharray="1,1" stroke-opacity="0.5"></line><g transform="translate(8)">
        <g transform="translate(-16,4)">
        <svg x="40" y="0" width="32" height="8" viewBox="0 0 16 4">
            <text x="60%" y="10%" text-anchor="middle" dominant-baseline="hanging" font-size="10%" font-family="monospace" fill="white">funds</text>
            <line x1="20%" y1="85%" x2="100%" y2="85%" stroke="rgba(81, 162, 255, 1)" stroke-width="0.25"></line>
            <circle cx="20%" cy="85%" r="0.5" fill="rgba(81, 162, 255, 1)"></circle>
        </svg>
    </g>
        <g transform="translate(-16,4)">
        <svg x="40" y="16" width="32" height="8" viewBox="0 0 16 4">
            <text x="60%" y="10%" text-anchor="middle" dominant-baseline="hanging" font-size="10%" font-family="monospace" fill="white">current state</text>
            <line x1="20%" y1="85%" x2="100%" y2="85%" stroke="rgba(81, 162, 255, 1)" stroke-width="0.25"></line>
            <circle cx="20%" cy="85%" r="0.5" fill="rgba(81, 162, 255, 1)"></circle>
        </svg>
    </g></g><g transform="translate(-8)">
        <g transform="translate(-16,4)">
        <svg x="120" y="0" width="32" height="8" viewBox="0 0 16 4">
            <text x="40%" y="10%" text-anchor="middle" dominant-baseline="hanging" font-size="10%" font-family="monospace" fill="white">ticket + change</text>
            <line x1="0%" y1="85%" x2="80%" y2="85%" stroke="rgba(255,0,127,1)" stroke-width="0.25"></line>
            <circle cx="80%" cy="85%" r="0.5" fill="rgba(255,0,127,1)"></circle>
        </svg>
    </g>
        <g transform="translate(-16,4)">
        <svg x="120" y="16" width="32" height="8" viewBox="0 0 16 4">
            <text x="40%" y="10%" text-anchor="middle" dominant-baseline="hanging" font-size="10%" font-family="monospace" fill="white">new state</text>
            <line x1="0%" y1="85%" x2="80%" y2="85%" stroke="rgba(255,0,127,1)" stroke-width="0.25"></line>
            <circle cx="80%" cy="85%" r="0.5" fill="rgba(255,0,127,1)"></circle>
        </svg>
    </g>
        <g transform="translate(-16,4)">
        <svg x="120" y="32" width="32" height="8" viewBox="0 0 16 4">
            <text x="40%" y="10%" text-anchor="middle" dominant-baseline="hanging" font-size="10%" font-family="monospace" fill="white">payment</text>
            <line x1="0%" y1="85%" x2="80%" y2="85%" stroke="rgba(255,0,127,1)" stroke-width="0.25"></line>
            <circle cx="80%" cy="85%" r="0.5" fill="rgba(255,0,127,1)"></circle>
        </svg>
    </g></g></svg>